<?xml version="1.0" encoding="UTF-8" standalone="no"?>
<svg
   xmlns:dc="http://purl.org/dc/elements/1.1/"
   xmlns:cc="http://creativecommons.org/ns#"
   xmlns:rdf="http://www.w3.org/1999/02/22-rdf-syntax-ns#"
   xmlns:svg="http://www.w3.org/2000/svg"
   xmlns="http://www.w3.org/2000/svg"
   xmlns:sodipodi="http://sodipodi.sourceforge.net/DTD/sodipodi-0.dtd"
   xmlns:inkscape="http://www.inkscape.org/namespaces/inkscape"
   width="100"
   height="100"
   viewBox="0 0 26.458333 26.458334"
   version="1.1"
   id="svg1458"
   inkscape:version="1.0.1 (3bc2e813f5, 2020-09-07)"
   sodipodi:docname="delete.svg">
  <defs
     id="defs1452" />
  <sodipodi:namedview
     id="base"
     pagecolor="#ffffff"
     bordercolor="#666666"
     borderopacity="1.0"
     inkscape:pageopacity="0.0"
     inkscape:pageshadow="2"
     inkscape:zoom="5.6"
     inkscape:cx="58.955685"
     inkscape:cy="57.035972"
     inkscape:document-units="mm"
     inkscape:current-layer="layer1"
     inkscape:document-rotation="0"
     showgrid="false"
     units="px"
     inkscape:window-width="1705"
     inkscape:window-height="1166"
     inkscape:window-x="84"
     inkscape:window-y="-11"
     inkscape:window-maximized="1" />
  <metadata
     id="metadata1455">
    <rdf:RDF>
      <cc:Work
         rdf:about="">
        <dc:format>image/svg+xml</dc:format>
        <dc:type
           rdf:resource="http://purl.org/dc/dcmitype/StillImage" />
        <dc:title></dc:title>
      </cc:Work>
    </rdf:RDF>
  </metadata>
  <g
     inkscape:label="Ebene 1"
     inkscape:groupmode="layer"
     id="layer1">
    <g
       id="g2112"
       transform="matrix(0.98644992,0,0,1.0223124,-1.8947467,0.79160338)">
      <path
         id="rect2021"
         style="fill:#800000;stroke-width:0.310175"
         d="M 8.3579985,3.8472576 10.615585,23.8125 h 2.275293 4.881562 2.275294 L 22.30532,3.8472576 h -4.53288 -4.881562 z m 4.1841965,4.9913105 c 0.386341,0 0.697366,0.2968156 0.697366,0.6655079 v 6.987834 c 0,0.368692 -0.311025,0.665509 -0.697366,0.665509 -0.386342,0 -0.697366,-0.296817 -0.697366,-0.665509 V 9.504076 c 0,-0.3686923 0.311024,-0.6655079 0.697366,-0.6655079 z m 2.789464,0 c 0.386342,0 0.697366,0.2968156 0.697366,0.6655079 v 6.987834 c 0,0.368692 -0.311024,0.665509 -0.697366,0.665509 -0.38634,0 -0.697366,-0.296817 -0.697366,-0.665509 V 9.504076 c 0,-0.3686923 0.311026,-0.6655079 0.697366,-0.6655079 z m 2.789465,0 c 0.386342,0 0.697365,0.2968156 0.697365,0.6655079 v 6.987834 c 0,0.368692 -0.311023,0.665509 -0.697365,0.665509 -0.386341,0 -0.697367,-0.296817 -0.697367,-0.665509 V 9.504076 c 0,-0.3686923 0.311026,-0.6655079 0.697367,-0.6655079 z" />
      <path
         id="rect2066"
         style="fill:#d40000;stroke-width:0.690495"
         d="M 15.331659,0.51971715 A 1.743415,1.6637701 0 0 0 13.588244,2.1834874 H 6.6145832 v 1.6637702 h 8.7170758 8.717075 V 2.1834874 h -6.97366 A 1.743415,1.6637701 0 0 0 15.331659,0.51971715 Z" />
    </g>
  </g>
</svg>
