<svg width="378" height="378" xmlns="http://www.w3.org/2000/svg" xmlns:xlink="http://www.w3.org/1999/xlink" overflow="hidden"><defs><clipPath id="clip0"><rect x="0" y="0" width="378" height="378"/></clipPath></defs><g clip-path="url(#clip0)"><rect x="0" y="0" width="378" height="378" fill="#FFFFFF" fill-opacity="0"/><path d="M28 316.468 172.261 316.468 172.261 212.5 139.5 212.5 189 163 238.5 212.5 205.739 212.5 205.739 316.468 350 316.468 350 361 28 361Z" fill-rule="evenodd"/><path d="M28.5001 61.5009C28.5001 43.275 43.275 28.5001 61.5008 28.5001L317.499 28.5001C335.725 28.5001 350.5 43.275 350.5 61.5009L350.5 193.499C350.5 211.725 335.725 226.5 317.499 226.5L61.5008 226.5C43.275 226.5 28.5001 211.725 28.5001 193.499Z" stroke="#000000" stroke-width="26.6667" stroke-miterlimit="8" fill="#BDD7EE" fill-rule="evenodd"/><path d="M0 0 99.9996 0 120 20.0004 120 159 0 159Z" stroke="#C00000" stroke-width="13.3333" stroke-miterlimit="8" fill="#FFFFFF" fill-rule="evenodd" transform="matrix(-1 -8.74228e-08 -8.74228e-08 1 249.5 47.5001)"/><path d="M24.6302 23.4288 81.1326 103.757 70.2269 111.428 13.7245 31.0997ZM6.65432 44.2235 0 0 39.3714 21.2107ZM88.2028 90.6336 94.8571 134.857 55.4857 113.646Z" fill="#70AD47" transform="matrix(1 0 0 -1 142.5 196.357)"/><path d="M207.611 165.9 156.189 92.6155 167.103 84.9571 218.525 158.242ZM225.611 145.126 232.214 189.357 192.867 168.101ZM149.104 105.731 142.5 61.5001 181.847 82.7559Z" fill="#70AD47"/></g></svg>