<svg width="378" height="378" xmlns="http://www.w3.org/2000/svg" xmlns:xlink="http://www.w3.org/1999/xlink" overflow="hidden"><defs><clipPath id="clip0"><rect x="0" y="0" width="378" height="378"/></clipPath></defs><g clip-path="url(#clip0)"><rect x="0" y="0" width="378" height="378" fill="#FFFFFF" fill-opacity="0"/><path d="M0 0 198.332 0 238 39.6675 238 330 0 330Z" stroke="#C00000" stroke-width="26.6667" stroke-miterlimit="8" fill="#FFFFFF" fill-rule="evenodd" transform="matrix(-1 -8.74228e-08 -8.74228e-08 1 308.5 24.5001)"/><path d="M45.6835 50.351 156.625 235.666 133.745 249.363 22.8036 64.0485ZM6.77244 89.186 0 0 75.4122 48.0936ZM172.656 210.528 179.429 299.714 104.017 251.621Z" fill="#70AD47" transform="matrix(1 0 0 -1 112.5 339.214)"/><path d="M246.011 288.934 135.602 106.442 158.418 92.6378 268.827 275.13ZM284.741 249.918 291.929 339.071 216.294 291.329ZM119.688 131.653 112.5 42.5001 188.135 90.2419Z" fill="#70AD47"/></g></svg>