<svg width="378" height="378" xmlns="http://www.w3.org/2000/svg" xmlns:xlink="http://www.w3.org/1999/xlink" overflow="hidden"><defs><clipPath id="clip0"><rect x="0" y="0" width="378" height="378"/></clipPath></defs><g clip-path="url(#clip0)"><rect x="0" y="0" width="378" height="378" fill="#FFFFFF" fill-opacity="0"/><path d="M0 0 139.999 0 168 28.0007 168 256 0 256Z" stroke="#A5A5A5" stroke-width="26.6667" stroke-miterlimit="8" fill="#FFFFFF" fill-rule="evenodd" transform="matrix(-1 -8.74228e-08 -8.74228e-08 1 273.5 61.5001)"/><path d="M222.5 305.5 108.946 305.5C55.128 305.5 11.5001 261.872 11.5001 208.054L11.5001 208.054C11.5001 154.237 55.128 110.609 108.946 110.609L124.545 110.609 124.545 81.5 177.295 134.25 124.545 187 124.545 157.892 108.946 157.892C81.2416 157.892 58.7829 180.35 58.7829 208.054L58.7831 208.054C58.7831 235.759 81.2418 258.217 108.946 258.217L222.5 258.217Z" stroke="#548235" stroke-width="13.3333" stroke-miterlimit="8" fill="#70AD47" fill-rule="evenodd"/><path d="M0 211 0 97.9981C0 43.8752 43.8752-4.27773e-14 97.998-5.70364e-14L97.998 0C152.121-2.85182e-14 195.996 43.8752 195.996 97.9981L195.996 113.045 224 113.045 171.25 165.795 118.5 113.045 146.504 113.045 146.504 97.9981C146.504 71.209 124.787 49.4921 97.998 49.4921L97.998 49.4921C71.209 49.4921 49.4921 71.209 49.4921 97.9981L49.4921 211Z" stroke="#548235" stroke-width="13.3333" stroke-miterlimit="8" fill="#70AD47" fill-rule="evenodd" transform="matrix(-4.37114e-08 -1 -1 4.37114e-08 367.5 305.5)"/><rect x="94" y="241" width="191" height="76" fill="#A5A5A5"/><rect x="119" y="228" width="140" height="77" fill="#FFFFFF"/><path d="M189.5 0.500053 189.5 378.5" stroke="#00B050" stroke-width="13.3333" stroke-miterlimit="8" stroke-dasharray="106.667 40" fill="none" fill-rule="evenodd"/></g></svg>