<?xml version="1.0" encoding="UTF-8"?>

<svg version="1.2" baseProfile="tiny" width="100mm" height="100mm" viewBox="0 0 10000 10000" preserveAspectRatio="xMidYMid" fill-rule="evenodd" stroke-width="28.222" stroke-linejoin="round" xmlns="http://www.w3.org/2000/svg" xmlns:xlink="http://www.w3.org/1999/xlink" xml:space="preserve">
 <g visibility="visible" id="MasterSlide_1_Standard">
  <desc>Master slide
  </desc>
  <rect fill="none" stroke="none" x="0" y="0" width="10000" height="10000"/>
 </g>
 <g visibility="visible" id="Slide_1_page1">
  <g>
   <path fill="rgb(153,51,255)" stroke="none" d="M 4501,3214 L 4400,3242 4300,3275 4201,3312 4105,3355 4010,3402 3919,3455 3830,3511 3744,3572 3661,3638 3581,3707 3506,3780 3434,3857 3366,3937 3302,4022 3243,4108 3187,4198 3136,4291 3090,4386 3050,4483 3013,4581 2982,4683 2956,4785 2936,4888 2920,4993 2909,5097 2904,5203 2905,5308 2910,5413 2922,5518 2937,5623 2959,5726 2985,5827 3017,5928 3054,6027 3095,6124 3141,6219 3192,6311 3248,6401 3308,6487 3372,6570 3440,6650 3514,6727 3589,6800 3669,6870 3752,6934 3839,6995 3928,7051 4020,7103 4115,7150 4211,7191 4310,7229 4409,7261 4512,7288 4615,7310 4719,7327 4824,7339 4929,7345 5035,7345 5140,7341 5244,7332 5349,7317 5452,7297 5555,7271 5656,7241 5755,7205 5853,7165 5947,7120 6040,7070 6130,7015 6218,6956 6303,6893 6383,6825 6461,6753 7788,8119 7640,8255 7485,8385 7324,8505 7157,8618 6985,8722 6808,8818 6626,8905 6441,8981 6251,9050 6058,9107 5863,9156 5665,9194 5467,9222 5266,9241 5065,9249 4864,9247 4663,9236 4464,9214 4265,9182 4068,9140 3873,9088 3682,9027 3494,8955 3310,8875 3129,8786 2954,8687 2783,8579 2619,8464 2460,8340 2308,8209 2163,8069 2024,7923 1893,7770 1771,7611 1656,7445 1551,7275 1452,7098 1364,6918 1285,6733 1215,6544 1155,6352 1104,6157 1064,5960 1033,5761 1012,5561 1001,5361 1001,5159 1011,4959 1030,4758 1060,4559 1100,4361 1149,4167 1209,3975 1278,3785 1356,3600 1444,3419 1540,3242 1646,3071 1760,2905 1881,2745 2011,2591 2149,2444 2293,2304 2445,2172 2603,2047 2767,1931 2937,1823 3112,1724 3292,1633 3476,1551 3664,1479 3855,1418 4049,1365 3810,393 6171,1825 4740,4185 4501,3214 Z"/>
   <path fill="none" stroke="rgb(128,128,128)" id="Drawing_1_0" stroke-linejoin="round" d="M 4501,3214 L 4400,3242 4300,3275 4201,3312 4105,3355 4010,3402 3919,3455 3830,3511 3744,3572 3661,3638 3581,3707 3506,3780 3434,3857 3366,3937 3302,4022 3243,4108 3187,4198 3136,4291 3090,4386 3050,4483 3013,4581 2982,4683 2956,4785 2936,4888 2920,4993 2909,5097 2904,5203 2905,5308 2910,5413 2922,5518 2937,5623 2959,5726 2985,5827 3017,5928 3054,6027 3095,6124 3141,6219 3192,6311 3248,6401 3308,6487 3372,6570 3440,6650 3514,6727 3589,6800 3669,6870 3752,6934 3839,6995 3928,7051 4020,7103 4115,7150 4211,7191 4310,7229 4409,7261 4512,7288 4615,7310 4719,7327 4824,7339 4929,7345 5035,7345 5140,7341 5244,7332 5349,7317 5452,7297 5555,7271 5656,7241 5755,7205 5853,7165 5947,7120 6040,7070 6130,7015 6218,6956 6303,6893 6383,6825 6461,6753 7788,8119 7640,8255 7485,8385 7324,8505 7157,8618 6985,8722 6808,8818 6626,8905 6441,8981 6251,9050 6058,9107 5863,9156 5665,9194 5467,9222 5266,9241 5065,9249 4864,9247 4663,9236 4464,9214 4265,9182 4068,9140 3873,9088 3682,9027 3494,8955 3310,8875 3129,8786 2954,8687 2783,8579 2619,8464 2460,8340 2308,8209 2163,8069 2024,7923 1893,7770 1771,7611 1656,7445 1551,7275 1452,7098 1364,6918 1285,6733 1215,6544 1155,6352 1104,6157 1064,5960 1033,5761 1012,5561 1001,5361 1001,5159 1011,4959 1030,4758 1060,4559 1100,4361 1149,4167 1209,3975 1278,3785 1356,3600 1444,3419 1540,3242 1646,3071 1760,2905 1881,2745 2011,2591 2149,2444 2293,2304 2445,2172 2603,2047 2767,1931 2937,1823 3112,1724 3292,1633 3476,1551 3664,1479 3855,1418 4049,1365 3810,393 6171,1825 4740,4185 4501,3214 Z"/>
   <rect fill="none" stroke="none" x="101" y="351" width="9800" height="9799"/>
  </g>
  <g>
   <path fill="rgb(153,51,255)" stroke="none" d="M 6872,6194 L 6822,6287 6768,6377 6709,6464 6646,6548 6579,6628 6508,6705 6433,6780 6355,6849 6273,6916 6188,6977 6100,7034 6009,7087 5916,7136 5820,7179 5723,7218 5623,7252 5522,7280 5419,7303 5316,7322 5212,7335 5107,7343 5002,7346 4897,7344 4793,7336 4689,7322 4585,7305 4482,7281 4381,7253 4281,7219 4184,7181 4088,7137 3995,7089 3904,7037 3815,6979 3730,6918 3649,6852 3570,6782 3495,6709 3424,6632 3357,6551 3293,6467 3235,6380 3180,6290 3130,6197 3085,6103 3045,6006 3010,5907 2979,5806 2954,5705 2933,5601 2919,5497 2909,5393 2904,5287 2905,5183 2912,5077 2923,4973 2938,4870 2960,4767 2987,4665 3019,4565 3056,4467 3098,4370 3144,4276 3195,4184 3251,4095 3311,4009 3375,3926 1900,2723 1777,2881 1662,3046 1556,3216 1458,3391 1369,3571 1290,3755 1220,3942 1158,4134 1107,4328 1067,4523 1035,4722 1014,4921 1003,5121 1000,5322 1009,5522 1028,5721 1057,5920 1095,6117 1143,6312 1201,6503 1269,6692 1346,6877 1432,7059 1527,7235 1632,7406 1744,7572 1864,7732 1992,7887 2128,8034 2271,8174 2421,8307 2577,8433 2740,8550 2909,8659 3081,8760 3259,8851 3442,8934 3629,9008 3819,9072 4012,9126 4207,9171 4405,9206 4604,9230 4803,9245 5004,9250 5205,9245 5404,9229 5603,9204 5801,9169 5996,9124 6189,9069 6379,9005 6565,8931 6748,8848 6926,8755 7099,8655 7267,8545 7430,8428 7586,8302 7735,8169 7878,8028 8014,7881 8141,7726 8262,7565 8374,7399 8477,7228 8572,7051 9465,7502 8601,4879 5979,5743 6872,6194 Z"/>
   <path fill="none" stroke="rgb(128,128,128)" id="Drawing_2_0" stroke-linejoin="round" d="M 6872,6194 L 6822,6287 6768,6377 6709,6464 6646,6548 6579,6628 6508,6705 6433,6780 6355,6849 6273,6916 6188,6977 6100,7034 6009,7087 5916,7136 5820,7179 5723,7218 5623,7252 5522,7280 5419,7303 5316,7322 5212,7335 5107,7343 5002,7346 4897,7344 4793,7336 4689,7322 4585,7305 4482,7281 4381,7253 4281,7219 4184,7181 4088,7137 3995,7089 3904,7037 3815,6979 3730,6918 3649,6852 3570,6782 3495,6709 3424,6632 3357,6551 3293,6467 3235,6380 3180,6290 3130,6197 3085,6103 3045,6006 3010,5907 2979,5806 2954,5705 2933,5601 2919,5497 2909,5393 2904,5287 2905,5183 2912,5077 2923,4973 2938,4870 2960,4767 2987,4665 3019,4565 3056,4467 3098,4370 3144,4276 3195,4184 3251,4095 3311,4009 3375,3926 1900,2723 1777,2881 1662,3046 1556,3216 1458,3391 1369,3571 1290,3755 1220,3942 1158,4134 1107,4328 1067,4523 1035,4722 1014,4921 1003,5121 1000,5322 1009,5522 1028,5721 1057,5920 1095,6117 1143,6312 1201,6503 1269,6692 1346,6877 1432,7059 1527,7235 1632,7406 1744,7572 1864,7732 1992,7887 2128,8034 2271,8174 2421,8307 2577,8433 2740,8550 2909,8659 3081,8760 3259,8851 3442,8934 3629,9008 3819,9072 4012,9126 4207,9171 4405,9206 4604,9230 4803,9245 5004,9250 5205,9245 5404,9229 5603,9204 5801,9169 5996,9124 6189,9069 6379,9005 6565,8931 6748,8848 6926,8755 7099,8655 7267,8545 7430,8428 7586,8302 7735,8169 7878,8028 8014,7881 8141,7726 8262,7565 8374,7399 8477,7228 8572,7051 9465,7502 8601,4879 5979,5743 6872,6194 Z"/>
   <rect fill="none" stroke="none" x="-410" y="-160" width="10821" height="10821"/>
  </g>
 </g>
</svg>