<svg width="378" height="378" xmlns="http://www.w3.org/2000/svg" xmlns:xlink="http://www.w3.org/1999/xlink" overflow="hidden"><defs><clipPath id="clip0"><rect x="0" y="0" width="378" height="378"/></clipPath><clipPath id="clip1"><rect x="85" y="21" width="309" height="309"/></clipPath><clipPath id="clip2"><rect x="85" y="21" width="309" height="309"/></clipPath><clipPath id="clip3"><rect x="85" y="21" width="309" height="309"/></clipPath></defs><g clip-path="url(#clip0)"><rect x="0" y="0" width="378" height="378" fill="#FFFFFF" fill-opacity="0"/><path d="M0 0 204.999 0 246 41.0007 246 342 0 342Z" stroke="#C00000" stroke-width="26.6667" stroke-miterlimit="8" fill="#FFFFFF" fill-rule="evenodd" transform="matrix(-1 -8.74228e-08 -8.74228e-08 1 312.5 18.5001)"/><g clip-path="url(#clip1)"><g clip-path="url(#clip2)"><g clip-path="url(#clip3)"><path d="M275.872 141.059C262.353 141.059 251.731 130.116 251.731 116.919 251.731 103.722 262.675 92.7781 275.872 92.7781 289.391 92.7781 300.013 103.722 300.013 116.919 300.013 130.116 289.069 141.059 275.872 141.059ZM330.269 101.791C328.981 97.2844 327.372 93.1 325.119 89.2375L330.269 74.1094 318.681 62.5219 303.553 67.6719C299.691 65.4187 295.506 63.8094 291 62.5219L283.919 48.3594 267.825 48.3594 260.744 62.5219C256.237 63.8094 252.053 65.4187 248.191 67.6719L233.063 62.5219 221.475 74.1094 226.625 89.2375C224.372 93.1 222.762 97.2844 221.475 101.791L207.313 108.872 207.313 124.966 221.475 132.047C222.762 136.553 224.372 140.738 226.625 144.6L221.475 159.728 232.741 170.994 247.869 165.844C251.731 168.097 255.916 169.706 260.422 170.994L267.503 185.156 283.597 185.156 290.678 170.994C295.184 169.706 299.369 168.097 303.231 165.844L318.359 170.994 329.947 159.728 324.797 144.6C327.05 140.738 328.981 136.231 330.269 132.047L344.431 124.966 344.431 108.872 330.269 101.791Z" fill="#7030A0"/><path d="M203.128 258.222C189.609 258.222 178.988 247.278 178.988 234.081 178.988 220.563 189.931 209.941 203.128 209.941 216.647 209.941 227.269 220.884 227.269 234.081 227.269 247.278 216.647 258.222 203.128 258.222L203.128 258.222ZM252.375 206.4 257.525 191.272 245.938 179.684 230.809 184.834C226.947 182.581 222.441 180.972 218.256 179.684L211.175 165.522 195.081 165.522 188 179.684C183.494 180.972 179.309 182.581 175.447 184.834L160.319 179.684 149.053 190.95 153.881 206.078C151.628 209.941 150.019 214.447 148.731 218.631L134.569 225.712 134.569 241.806 148.731 248.888C150.019 253.394 151.628 257.578 153.881 261.441L149.053 276.569 160.319 287.834 175.447 283.006C179.309 285.259 183.494 286.869 188 288.156L195.081 302.319 211.175 302.319 218.256 288.156C222.762 286.869 226.947 285.259 230.809 283.006L245.938 288.156 257.203 276.569 252.375 261.763C254.628 257.9 256.237 253.716 257.525 249.209L271.688 242.128 271.688 226.034 257.525 218.953C256.237 214.447 254.628 210.262 252.375 206.4Z" fill="#7030A0"/></g></g></g></g></svg>