<?xml version="1.0" encoding="UTF-8" standalone="no"?>
<svg
   xmlns:dc="http://purl.org/dc/elements/1.1/"
   xmlns:cc="http://creativecommons.org/ns#"
   xmlns:rdf="http://www.w3.org/1999/02/22-rdf-syntax-ns#"
   xmlns:svg="http://www.w3.org/2000/svg"
   xmlns="http://www.w3.org/2000/svg"
   xmlns:sodipodi="http://sodipodi.sourceforge.net/DTD/sodipodi-0.dtd"
   xmlns:inkscape="http://www.inkscape.org/namespaces/inkscape"
   sodipodi:docname="info.svg"
   inkscape:version="1.0 (4035a4fb49, 2020-05-01)"
   id="svg8"
   version="1.1"
   viewBox="0 0 26.458333 26.458334"
   height="100"
   width="100">
  <defs
     id="defs2" />
  <sodipodi:namedview
     inkscape:window-maximized="0"
     inkscape:window-y="147"
     inkscape:window-x="260"
     inkscape:window-height="997"
     inkscape:window-width="1481"
     units="px"
     showgrid="false"
     inkscape:document-rotation="0"
     inkscape:current-layer="layer1"
     inkscape:document-units="mm"
     inkscape:cy="67.990973"
     inkscape:cx="54.166388"
     inkscape:zoom="3.959798"
     inkscape:pageshadow="2"
     inkscape:pageopacity="0.0"
     borderopacity="1.0"
     bordercolor="#666666"
     pagecolor="#ffffff"
     id="base" />
  <metadata
     id="metadata5">
    <rdf:RDF>
      <cc:Work
         rdf:about="">
        <dc:format>image/svg+xml</dc:format>
        <dc:type
           rdf:resource="http://purl.org/dc/dcmitype/StillImage" />
        <dc:title></dc:title>
      </cc:Work>
    </rdf:RDF>
  </metadata>
  <g
     id="layer1"
     inkscape:groupmode="layer"
     inkscape:label="Ebene 1">
    <path
       transform="scale(0.26458333)"
       d="M 49.826172 5 A 44.999999 44.999999 0 0 0 5 50 A 44.999999 44.999999 0 0 0 50 95 A 44.999999 44.999999 0 0 0 95 50 A 44.999999 44.999999 0 0 0 50 5 A 44.999999 44.999999 0 0 0 49.826172 5 z M 49.980469 15.677734 A 9.9999998 9.9999998 0 0 1 50 15.677734 A 9.9999998 9.9999998 0 0 1 60 25.677734 A 9.9999998 9.9999998 0 0 1 50 35.677734 A 9.9999998 9.9999998 0 0 1 40 25.677734 A 9.9999998 9.9999998 0 0 1 49.980469 15.677734 z M 42.5 42.257812 L 57.5 42.257812 L 57.5 82.257812 L 42.5 82.257812 L 42.5 42.257812 z "
       style="opacity:0.998883;fill:#2a7fff;stroke-width:5.63546"
       id="path833" />
  </g>
</svg>
