<?xml version="1.0" encoding="UTF-8" standalone="no"?>
<svg
   xmlns:osb="http://www.openswatchbook.org/uri/2009/osb"
   xmlns:dc="http://purl.org/dc/elements/1.1/"
   xmlns:cc="http://creativecommons.org/ns#"
   xmlns:rdf="http://www.w3.org/1999/02/22-rdf-syntax-ns#"
   xmlns:svg="http://www.w3.org/2000/svg"
   xmlns="http://www.w3.org/2000/svg"
   xmlns:xlink="http://www.w3.org/1999/xlink"
   xmlns:sodipodi="http://sodipodi.sourceforge.net/DTD/sodipodi-0.dtd"
   xmlns:inkscape="http://www.inkscape.org/namespaces/inkscape"
   sodipodi:docname="new.svg"
   inkscape:version="1.0 (4035a4fb49, 2020-05-01)"
   id="svg8"
   version="1.1"
   viewBox="0 0 26.458333 26.458334"
   height="100"
   width="100">
  <defs
     id="defs2">
    <linearGradient
       osb:paint="solid"
       id="linearGradient837">
      <stop
         id="stop835"
         offset="0"
         style="stop-color:#a5a5a5;stop-opacity:1;" />
    </linearGradient>
    <linearGradient
       gradientTransform="matrix(3.7577092,0,0,4.04882,1.1763408,-3.2755764)"
       gradientUnits="userSpaceOnUse"
       y2="13.158297"
       x2="19.37128"
       y1="13.158297"
       x1="6.614583"
       id="linearGradient839"
       xlink:href="#linearGradient837"
       inkscape:collect="always" />
  </defs>
  <sodipodi:namedview
     inkscape:window-maximized="1"
     inkscape:window-y="-11"
     inkscape:window-x="97"
     inkscape:window-height="1166"
     inkscape:window-width="1692"
     units="px"
     showgrid="false"
     inkscape:document-rotation="0"
     inkscape:current-layer="layer1"
     inkscape:document-units="mm"
     inkscape:cy="38.521985"
     inkscape:cx="62.982717"
     inkscape:zoom="2.8"
     inkscape:pageshadow="2"
     inkscape:pageopacity="0.0"
     borderopacity="1.0"
     bordercolor="#666666"
     pagecolor="#ffffff"
     id="base" />
  <metadata
     id="metadata5">
    <rdf:RDF>
      <cc:Work
         rdf:about="">
        <dc:format>image/svg+xml</dc:format>
        <dc:type
           rdf:resource="http://purl.org/dc/dcmitype/StillImage" />
        <dc:title></dc:title>
      </cc:Work>
    </rdf:RDF>
  </metadata>
  <g
     id="layer1"
     inkscape:groupmode="layer"
     inkscape:label="Ebene 1">
    <path
       transform="scale(0.26458333)"
       d="M 40.71875 18.53125 L 26.03125 37.162109 L 26.03125 81.46875 L 73.96875 81.46875 L 73.96875 18.53125 L 40.71875 18.53125 z "
       style="opacity:0.998883;fill:#ffffff;fill-opacity:1;stroke:url(#linearGradient839);stroke-width:2.06404;stroke-miterlimit:4;stroke-dasharray:none"
       id="rect833" />
    <rect
       y="9.8324747"
       x="7.1547046"
       height="0.3728826"
       width="3.9655423"
       id="rect848"
       style="opacity:0.998883;fill:#cccccc;fill-opacity:1;stroke-width:0.53141;stroke-miterlimit:4;stroke-dasharray:none" />
    <rect
       y="5.2705555"
       x="10.773502"
       height="4.745667"
       width="0.34674439"
       id="rect850"
       style="opacity:0.998883;fill:#cccccc;fill-opacity:1;stroke-width:1.42448;stroke-miterlimit:4;stroke-dasharray:none" />
    <path
       id="path860"
       d="m 12.294398,7.3499119 c 0.412041,-0.1113623 0.818642,-0.2452616 1.236122,-0.334087 0.320635,-0.06822 0.397833,0.073559 0.668173,0.133635 0.220456,0.04899 0.449014,-0.064717 0.668174,-0.033409 0.140283,0.02004 0.374199,0.1617022 0.567948,0.200452 0.351166,0.070233 0.715443,0.058669 1.069078,0.033409 0.135134,-0.00965 0.265426,-0.066817 0.400905,-0.066817 0.249172,0 0.649263,0.2498299 0.902034,0.334087 0.172284,0.057428 0.358288,0.089572 0.534539,0.1336347"
       style="fill:none;stroke:#000000;stroke-width:0.264583px;stroke-linecap:butt;stroke-linejoin:miter;stroke-opacity:1" />
    <path
       id="path862"
       d="m 12.127355,10.022607 c 0.835217,0.03341 1.670434,0.06682 2.505651,0.100226 0.434313,0.03341 0.867996,0.07639 1.30294,0.100226 0.524256,0.02873 1.289296,-0.02454 1.837477,0.06682 0.144931,0.02416 0.288127,-0.03341 0.434313,-0.03341"
       style="fill:none;stroke:#000000;stroke-width:0.264583px;stroke-linecap:butt;stroke-linejoin:miter;stroke-opacity:1" />
    <path
       id="path864"
       d="m 8.0849032,12.394624 c 1.7890726,0.16385 3.5870958,0.156156 5.3787988,0.26727 1.682597,0.104347 1.694474,0.237069 3.0736,0.133634 0.09157,-0.0069 0.176687,-0.05172 0.267269,-0.06682 0.283282,-0.04721 0.588112,-0.04675 0.868626,0 0.02456,0.0041 0.04192,0.03341 0.06682,0.03341 0.04592,0 0.08772,-0.03341 0.133635,-0.03341 0.06774,0 0.268191,0.03341 0.200452,0.03341"
       style="fill:none;stroke:#000000;stroke-width:0.264583px;stroke-linecap:butt;stroke-linejoin:miter;stroke-opacity:1" />
    <path
       id="path866"
       d="m 8.1851293,16.737754 c 1.215495,-0.408062 2.0109687,0.245594 3.2072337,0.200452 0.426521,-0.01609 0.843364,-0.143367 1.269531,-0.167043 0.394232,-0.0219 0.850948,-0.04363 1.236121,0.03341 0.04884,0.0098 0.08532,0.05474 0.133635,0.06682 0.09684,0.02421 0.202995,0.03019 0.300678,0.06682 0.04663,0.01749 0.08532,0.05474 0.133635,0.06682 0.290725,0.07268 0.841674,-0.05119 1.135896,-0.100226 0.134975,-0.02249 0.269868,-0.01157 0.400904,-0.03341 0.113819,-0.01897 0.220303,-0.08126 0.334087,-0.100226 0.154026,-0.02567 0.846775,-0.0055 1.00226,0.03341 0.07401,0.0185 0.263913,0.100227 0.334087,0.100227"
       style="fill:none;stroke:#000000;stroke-width:0.264583px;stroke-linecap:butt;stroke-linejoin:miter;stroke-opacity:1" />
    <path
       id="path868"
       d="m 8.4858073,19.477267 c 0.093373,0.0013 3.7264227,0.06149 4.2094947,0.03341 0.382059,-0.02221 0.754068,-0.141156 1.135896,-0.167043 0.27799,-0.01885 0.556589,0.03341 0.835217,0.03341 0.04592,0 0.08772,-0.03341 0.133635,-0.03341 0.04592,0 0.08772,0.03341 0.133635,0.03341 0.174509,0 0.361443,-0.04758 0.534539,-0.06682 0.186772,-0.02075 0.381507,0.02331 0.567948,0 0.116081,-0.01451 0.249492,-0.06682 0.367495,-0.06682 0.04592,0 0.08772,0.03341 0.133635,0.03341 0.194841,0 0.472033,-0.0423 0.668174,-0.06682 0.236893,-0.02961 0.387899,0.133635 0.601356,0.133635"
       style="fill:none;stroke:#000000;stroke-width:0.264583px;stroke-linecap:butt;stroke-linejoin:miter;stroke-opacity:1" />
    <path
       id="path870"
       d="m 8.3521726,14.332328 c 0.7906724,0.111363 1.5816929,0.220281 2.3720174,0.334087 0.277243,0.03992 2.306201,0.375262 2.873147,0.367496 0.536342,-0.0073 1.068413,-0.09796 1.603617,-0.133635 0.08958,-0.006 0.177487,-0.03341 0.26727,-0.03341 0.219599,0 0.453701,0.06959 0.668174,0.100226 0.266635,0.03809 0.567338,0.02855 0.835217,0.06682 0.156509,0.02236 0.366914,0.122692 0.534539,0.06682 0.04862,-0.01621 0.06293,-0.09634 0.100226,-0.133635"
       style="fill:none;stroke:#000000;stroke-width:0.264583px;stroke-linecap:butt;stroke-linejoin:miter;stroke-opacity:1" />
  </g>
</svg>
