<?xml version="1.0" encoding="UTF-8" standalone="no"?>
<svg
   xmlns:osb="http://www.openswatchbook.org/uri/2009/osb"
   xmlns:dc="http://purl.org/dc/elements/1.1/"
   xmlns:cc="http://creativecommons.org/ns#"
   xmlns:rdf="http://www.w3.org/1999/02/22-rdf-syntax-ns#"
   xmlns:svg="http://www.w3.org/2000/svg"
   xmlns="http://www.w3.org/2000/svg"
   xmlns:sodipodi="http://sodipodi.sourceforge.net/DTD/sodipodi-0.dtd"
   xmlns:inkscape="http://www.inkscape.org/namespaces/inkscape"
   width="100"
   height="100"
   viewBox="0 0 26.458333 26.458334"
   version="1.1"
   id="svg8"
   inkscape:version="1.0 (4035a4fb49, 2020-05-01)"
   sodipodi:docname="circ2.svg">
  <defs
     id="defs2">
    <linearGradient
       osb:paint="solid"
       id="linearGradient842">
      <stop
         id="stop840"
         offset="0"
         style="stop-color:#000000;stop-opacity:1;" />
    </linearGradient>
    <linearGradient
       id="linearGradient1414"
       osb:paint="solid">
      <stop
         style="stop-color:#000000;stop-opacity:1;"
         offset="0"
         id="stop1412" />
    </linearGradient>
    <linearGradient
       id="linearGradient837"
       osb:paint="solid">
      <stop
         style="stop-color:#ffcc00;stop-opacity:1;"
         offset="0"
         id="stop835" />
    </linearGradient>
  </defs>
  <sodipodi:namedview
     id="base"
     pagecolor="#ffffff"
     bordercolor="#666666"
     borderopacity="1.0"
     inkscape:pageopacity="0.0"
     inkscape:pageshadow="2"
     inkscape:zoom="5.6"
     inkscape:cx="48.95412"
     inkscape:cy="61.084763"
     inkscape:document-units="mm"
     inkscape:current-layer="layer1"
     inkscape:document-rotation="0"
     showgrid="false"
     units="px"
     inkscape:window-width="1692"
     inkscape:window-height="1166"
     inkscape:window-x="97"
     inkscape:window-y="-11"
     inkscape:window-maximized="1" />
  <metadata
     id="metadata5">
    <rdf:RDF>
      <cc:Work
         rdf:about="">
        <dc:format>image/svg+xml</dc:format>
        <dc:type
           rdf:resource="http://purl.org/dc/dcmitype/StillImage" />
        <dc:title />
      </cc:Work>
    </rdf:RDF>
  </metadata>
  <g
     inkscape:label="Ebene 1"
     inkscape:groupmode="layer"
     id="layer1">
    <path
       id="path841"
       style="opacity:0.998883;fill:#ffcc00;stroke-width:8.6801;stroke:none"
       d="M 49.826172 5 A 45 45 0 0 0 5 50 A 45 45 0 0 0 50 95 A 45 45 0 0 0 95 50 A 45 45 0 0 0 50 5 A 45 45 0 0 0 49.826172 5 z M 49.744141 15 A 35.000001 35.000001 0 0 1 50 15 A 35.000001 35.000001 0 0 1 85 50 A 35.000001 35.000001 0 0 1 50 85 A 35.000001 35.000001 0 0 1 15 50 A 35.000001 35.000001 0 0 1 49.744141 15 z "
       transform="scale(0.26458333)" />
    <path
       transform="scale(0.26458333)"
       d="M 70.40625 10.537109 C 67.509601 10.537109 65.177734 12.868976 65.177734 15.765625 L 65.177734 20.308594 C 65.177734 23.205246 67.509601 25.537109 70.40625 25.537109 L 74.949219 25.537109 C 77.845868 25.537109 80.177734 23.205246 80.177734 20.308594 L 80.177734 15.765625 C 80.177734 12.868976 77.845868 10.537109 74.949219 10.537109 L 70.40625 10.537109 z M 24.513672 74.285156 C 21.617025 74.285156 19.285156 76.617023 19.285156 79.513672 L 19.285156 84.056641 C 19.285156 86.953289 21.617025 89.285156 24.513672 89.285156 L 29.056641 89.285156 C 31.953289 89.285156 34.285156 86.953289 34.285156 84.056641 L 34.285156 79.513672 C 34.285156 76.617023 31.953289 74.285156 29.056641 74.285156 L 24.513672 74.285156 z "
       style="opacity:0.998883;fill:#aad400;stroke:none;stroke-width:6.17136"
       id="path840" />
  </g>
</svg>
