<?xml version="1.0" encoding="UTF-8" standalone="no"?>
<svg
   xmlns:dc="http://purl.org/dc/elements/1.1/"
   xmlns:cc="http://creativecommons.org/ns#"
   xmlns:rdf="http://www.w3.org/1999/02/22-rdf-syntax-ns#"
   xmlns:svg="http://www.w3.org/2000/svg"
   xmlns="http://www.w3.org/2000/svg"
   xmlns:sodipodi="http://sodipodi.sourceforge.net/DTD/sodipodi-0.dtd"
   xmlns:inkscape="http://www.inkscape.org/namespaces/inkscape"
   sodipodi:docname="compass.svg"
   inkscape:version="1.0 (4035a4fb49, 2020-05-01)"
   id="svg1498"
   version="1.1"
   viewBox="0 0 26.458333 26.458334"
   height="100"
   width="100">
  <defs
     id="defs1492" />
  <sodipodi:namedview
     inkscape:window-maximized="1"
     inkscape:window-y="-11"
     inkscape:window-x="97"
     inkscape:window-height="1166"
     inkscape:window-width="1692"
     units="px"
     showgrid="false"
     inkscape:document-rotation="0"
     inkscape:current-layer="layer1"
     inkscape:document-units="mm"
     inkscape:cy="52.537288"
     inkscape:cx="48.143517"
     inkscape:zoom="7.9195959"
     inkscape:pageshadow="2"
     inkscape:pageopacity="0.0"
     borderopacity="1.0"
     bordercolor="#666666"
     pagecolor="#ffffff"
     id="base" />
  <metadata
     id="metadata1495">
    <rdf:RDF>
      <cc:Work
         rdf:about="">
        <dc:format>image/svg+xml</dc:format>
        <dc:type
           rdf:resource="http://purl.org/dc/dcmitype/StillImage" />
        <dc:title></dc:title>
      </cc:Work>
    </rdf:RDF>
  </metadata>
  <g
     id="layer1"
     inkscape:groupmode="layer"
     inkscape:label="Ebene 1">
    <path
       transform="scale(0.26458333)"
       d="M 49.886719 5 A 15 15 0 0 0 35 20 A 15 15 0 0 0 50 35 A 15 15 0 0 0 65 20 A 15 15 0 0 0 50 5 A 15 15 0 0 0 49.886719 5 z M 49.980469 10 A 9.9999999 9.9999999 0 0 1 50 10 A 9.9999999 9.9999999 0 0 1 60 20 A 9.9999999 9.9999999 0 0 1 50 30 A 9.9999999 9.9999999 0 0 1 40 20 A 9.9999999 9.9999999 0 0 1 49.980469 10 z "
       style="opacity:0.998883;fill:#000000;stroke-width:3.92164"
       id="path2061" />
    <path
       transform="scale(0.26458333)"
       d="M 46.988281 21.960938 C 46.01508 22.009529 45.120898 22.629363 44.765625 23.605469 L 35.158203 50 L 26.904297 50 C 25.84962 50 25 50.84962 25 51.904297 L 25 53.095703 C 25 54.15038 25.84962 55 26.904297 55 L 33.339844 55 L 22.535156 84.685547 C 22.06146 85.987018 22.727822 87.414974 24.029297 87.888672 C 25.330771 88.36237 26.760678 87.696002 27.234375 86.394531 L 38.660156 55 L 61.591797 55 L 73.019531 86.394531 C 73.493229 87.696006 74.921182 88.36237 76.222656 87.888672 C 77.524131 87.414974 78.190495 85.987021 77.716797 84.685547 L 66.912109 55 L 73.095703 55 C 74.15038 55 75 54.15038 75 53.095703 L 75 51.904297 C 75 50.84962 74.15038 50 73.095703 50 L 65.09375 50 L 55.486328 23.605469 C 55.01263 22.303994 53.582725 21.63763 52.28125 22.111328 C 50.979775 22.585026 50.313411 24.012979 50.787109 25.314453 L 59.771484 50 L 40.480469 50 L 49.464844 25.314453 C 49.938542 24.012979 49.272178 22.585026 47.970703 22.111328 C 47.645334 21.992904 47.312682 21.94474 46.988281 21.960938 z "
       style="opacity:0.998883;fill:#000000;stroke-width:8.38692"
       id="rect2063" />
  </g>
</svg>
