<?xml version="1.0" encoding="UTF-8" standalone="no"?>
<svg
   xmlns:osb="http://www.openswatchbook.org/uri/2009/osb"
   xmlns:dc="http://purl.org/dc/elements/1.1/"
   xmlns:cc="http://creativecommons.org/ns#"
   xmlns:rdf="http://www.w3.org/1999/02/22-rdf-syntax-ns#"
   xmlns:svg="http://www.w3.org/2000/svg"
   xmlns="http://www.w3.org/2000/svg"
   xmlns:sodipodi="http://sodipodi.sourceforge.net/DTD/sodipodi-0.dtd"
   xmlns:inkscape="http://www.inkscape.org/namespaces/inkscape"
   width="100"
   height="100"
   viewBox="0 0 26.458333 26.458334"
   version="1.1"
   id="svg8"
   inkscape:version="1.0 (4035a4fb49, 2020-05-01)"
   sodipodi:docname="rect.svg">
  <defs
     id="defs2">
    <linearGradient
       id="linearGradient1414"
       osb:paint="solid">
      <stop
         style="stop-color:#000000;stop-opacity:1;"
         offset="0"
         id="stop1412" />
    </linearGradient>
    <linearGradient
       id="linearGradient837"
       osb:paint="solid">
      <stop
         style="stop-color:#ffcc00;stop-opacity:1;"
         offset="0"
         id="stop835" />
    </linearGradient>
  </defs>
  <sodipodi:namedview
     id="base"
     pagecolor="#ffffff"
     bordercolor="#666666"
     borderopacity="1.0"
     inkscape:pageopacity="0.0"
     inkscape:pageshadow="2"
     inkscape:zoom="5.6"
     inkscape:cx="48.95412"
     inkscape:cy="61.084763"
     inkscape:document-units="mm"
     inkscape:current-layer="layer1"
     inkscape:document-rotation="0"
     showgrid="false"
     units="px"
     inkscape:window-width="1692"
     inkscape:window-height="1166"
     inkscape:window-x="97"
     inkscape:window-y="-11"
     inkscape:window-maximized="1" />
  <metadata
     id="metadata5">
    <rdf:RDF>
      <cc:Work
         rdf:about="">
        <dc:format>image/svg+xml</dc:format>
        <dc:type
           rdf:resource="http://purl.org/dc/dcmitype/StillImage" />
        <dc:title />
      </cc:Work>
    </rdf:RDF>
  </metadata>
  <g
     inkscape:label="Ebene 1"
     inkscape:groupmode="layer"
     id="layer1">
    <path
       transform="scale(0.26458333)"
       d="M 11.404297 5 C 7.8559713 5 5 7.8559713 5 11.404297 L 5 88.595703 C 5 92.144026 7.8559713 95 11.404297 95 L 88.595703 95 C 92.144026 95 95 92.144026 95 88.595703 L 95 11.404297 C 95 7.8559713 92.144026 5 88.595703 5 L 11.404297 5 z M 20.15625 15 L 79.84375 15 C 82.70017 15 85 17.299832 85 20.15625 L 85 79.84375 C 85 82.70017 82.70017 85 79.84375 85 L 20.15625 85 C 17.299832 85 15 82.70017 15 79.84375 L 15 20.15625 C 15 17.299832 17.299832 15 20.15625 15 z "
       style="opacity:0.998883;fill:#ffcc00;fill-opacity:1;stroke:none;stroke-width:15.8218"
       id="rect1410" />
    <path
       transform="scale(0.26458333)"
       d="M 10.228516 5 C 7.3318657 5 5 7.3318657 5 10.228516 L 5 14.771484 C 5 17.668134 7.3318657 20 10.228516 20 L 14.771484 20 C 17.668134 20 20 17.668134 20 14.771484 L 20 10.228516 C 20 7.3318657 17.668134 5 14.771484 5 L 10.228516 5 z M 85.228516 80 C 82.331867 80 80 82.331867 80 85.228516 L 80 89.771484 C 80 92.668133 82.331867 95 85.228516 95 L 89.771484 95 C 92.668133 95 95 92.668133 95 89.771484 L 95 85.228516 C 95 82.331867 92.668133 80 89.771484 80 L 85.228516 80 z "
       style="opacity:0.998883;fill:#aad400;stroke:none;stroke-width:6.17136"
       id="rect1420" />
  </g>
</svg>
