<?xml version="1.0" encoding="UTF-8" standalone="no"?>
<svg
   xmlns:dc="http://purl.org/dc/elements/1.1/"
   xmlns:cc="http://creativecommons.org/ns#"
   xmlns:rdf="http://www.w3.org/1999/02/22-rdf-syntax-ns#"
   xmlns:svg="http://www.w3.org/2000/svg"
   xmlns="http://www.w3.org/2000/svg"
   xmlns:sodipodi="http://sodipodi.sourceforge.net/DTD/sodipodi-0.dtd"
   xmlns:inkscape="http://www.inkscape.org/namespaces/inkscape"
   inkscape:version="1.0 (4035a4fb49, 2020-05-01)"
   sodipodi:docname="ruler.svg"
   id="svg8"
   version="1.1"
   viewBox="0 0 26.458333 26.458334"
   height="100"
   width="100">
  <defs
     id="defs2" />
  <sodipodi:namedview
     inkscape:window-maximized="1"
     inkscape:window-y="-11"
     inkscape:window-x="97"
     inkscape:window-height="1166"
     inkscape:window-width="1692"
     units="px"
     showgrid="false"
     inkscape:document-rotation="0"
     inkscape:current-layer="g1479"
     inkscape:document-units="mm"
     inkscape:cy="56.840915"
     inkscape:cx="53.281056"
     inkscape:zoom="5.6"
     inkscape:pageshadow="2"
     inkscape:pageopacity="0.0"
     borderopacity="1.0"
     bordercolor="#666666"
     pagecolor="#ffffff"
     id="base" />
  <metadata
     id="metadata5">
    <rdf:RDF>
      <cc:Work
         rdf:about="">
        <dc:format>image/svg+xml</dc:format>
        <dc:type
           rdf:resource="http://purl.org/dc/dcmitype/StillImage" />
        <dc:title></dc:title>
      </cc:Work>
    </rdf:RDF>
  </metadata>
  <g
     id="layer1"
     inkscape:groupmode="layer"
     inkscape:label="Ebene 1">
    <g
       id="g1479">
      <path
         transform="scale(0.26458333)"
         d="M 5 30 L 5 70 L 95 70 L 95 30 L 78 30 L 73 30 L 65 30 L 60 30 L 52 30 L 47 30 L 38 30 L 33 30 L 25 30 L 20 30 L 5 30 z M 10 35 L 20 35 L 20 50 L 25 50 L 25 35 L 33 35 L 33 45 L 38 45 L 38 35 L 47 35 L 47 45 L 52 45 L 52 35 L 60 35 L 60 50 L 65 50 L 65 35 L 73 35 L 73 45 L 78 45 L 78 35 L 90 35 L 90 65 L 10 65 L 10 35 z "
         style="opacity:0.998883;fill:#000000;fill-opacity:1;stroke:none;stroke-width:5.52363;stroke-opacity:1"
         id="rect1402" />
    </g>
  </g>
</svg>
