<?xml version="1.0" encoding="UTF-8" standalone="no"?>
<!-- Created with Inkscape (http://www.inkscape.org/) -->

<svg
   xmlns:dc="http://purl.org/dc/elements/1.1/"
   xmlns:cc="http://creativecommons.org/ns#"
   xmlns:rdf="http://www.w3.org/1999/02/22-rdf-syntax-ns#"
   xmlns:svg="http://www.w3.org/2000/svg"
   xmlns="http://www.w3.org/2000/svg"
   xmlns:sodipodi="http://sodipodi.sourceforge.net/DTD/sodipodi-0.dtd"
   xmlns:inkscape="http://www.inkscape.org/namespaces/inkscape"
   width="100"
   height="100"
   viewBox="0 0 26.458333 26.458334"
   version="1.1"
   id="svg3743"
   inkscape:version="0.92.4 (5da689c313, 2019-01-14)"
   sodipodi:docname="stamp.svg">
  <defs
     id="defs3737" />
  <sodipodi:namedview
     id="base"
     pagecolor="#ffffff"
     bordercolor="#666666"
     borderopacity="1.0"
     inkscape:pageopacity="0.0"
     inkscape:pageshadow="2"
     inkscape:zoom="7.9195959"
     inkscape:cx="64.131613"
     inkscape:cy="35.416306"
     inkscape:document-units="mm"
     inkscape:current-layer="layer1"
     showgrid="false"
     units="px"
     inkscape:window-width="2605"
     inkscape:window-height="1779"
     inkscape:window-x="118"
     inkscape:window-y="-13"
     inkscape:window-maximized="1" />
  <metadata
     id="metadata3740">
    <rdf:RDF>
      <cc:Work
         rdf:about="">
        <dc:format>image/svg+xml</dc:format>
        <dc:type
           rdf:resource="http://purl.org/dc/dcmitype/StillImage" />
        <dc:title></dc:title>
      </cc:Work>
    </rdf:RDF>
  </metadata>
  <g
     inkscape:label="Layer 1"
     inkscape:groupmode="layer"
     id="layer1"
     transform="translate(0,-270.54165)">
    <g
       id="g6411"
       transform="translate(0,-1.7197915)">
      <path
         transform="matrix(0.26458333,0,0,0.26458333,0,270.54165)"
         id="rect3745"
         d="m 15,70 c -2.77,0 -5,2.23 -5,5 V 90 H 90 V 75 c 0,-2.77 -2.23,-5 -5,-5 z"
         style="fill:#ffcc00;fill-opacity:1;stroke:none;stroke-width:0.83450896"
         inkscape:connector-curvature="0" />
      <path
         transform="matrix(0.26458333,0,0,0.26458333,0,270.54165)"
         id="path4555"
         d="M 50,23 A 12.5,12.5 0 0 0 37.5,35.5 12.5,12.5 0 0 0 45,46.949219 V 70 H 55 V 46.939453 A 12.5,12.5 0 0 0 62.5,35.5 12.5,12.5 0 0 0 50,23 Z"
         style="fill:#aad400;fill-opacity:1;stroke:none;stroke-width:1.21304214"
         inkscape:connector-curvature="0" />
    </g>
  </g>
</svg>
